<?xml version="1.0" encoding="UTF-8"?>
<svg xmlns="http://www.w3.org/2000/svg" xmlns:xlink="http://www.w3.org/1999/xlink" width="30pt" height="30pt" viewBox="0 0 30 30" version="1.1">
<g id="surface1">
<path style="fill-rule:nonzero;fill:rgb(100%,100%,100%);fill-opacity:1;stroke-width:1.017385;stroke-linecap:butt;stroke-linejoin:miter;stroke:rgb(0%,0%,0%);stroke-opacity:1;stroke-miterlimit:10;" d="M 29.299583 417.48 C 29.299583 425.380833 22.895 431.785417 14.994167 431.785417 C 7.089375 431.785417 0.684792 425.380833 0.684792 417.48 C 0.684792 409.575208 7.089375 403.170625 14.994167 403.170625 C 22.895 403.170625 29.299583 409.575208 29.299583 417.48 Z M 29.299583 417.48 " transform="matrix(0.986842,0,0,0.986842,0,-396.986842)"/>
<path style=" stroke:none;fill-rule:nonzero;fill:rgb(0%,0%,0%);fill-opacity:1;" d="M 3.867188 8.957031 C 4.613281 8.890625 5.363281 8.824219 6.113281 8.757812 C 6.167969 8.695312 6.261719 8.640625 6.269531 8.574219 C 6.449219 6.671875 6.804688 6.367188 9.382812 6.773438 C 11.3125 7.078125 13.144531 7.714844 15.070312 8.214844 C 16.652344 7.777344 18.464844 7.121094 20.378906 6.792969 C 23.027344 6.335938 23.460938 6.664062 23.738281 8.746094 L 25.988281 8.9375 L 25.988281 21.8125 C 22.375 22.078125 18.484375 21.308594 15.113281 22.949219 L 14.507812 22.949219 C 12.28125 21.808594 9.761719 21.78125 7.195312 21.863281 C 6.089844 21.898438 4.976562 21.835938 3.867188 21.824219 Z M 14.539062 19.726562 C 14.539062 16.488281 14.554688 13.109375 14.515625 9.734375 C 14.515625 9.4375 14.292969 9.042969 13.992188 8.859375 C 12.046875 7.652344 9.792969 7.21875 7.296875 7.40625 L 7.296875 18.304688 Z M 22.675781 7.414062 C 20.25 7.222656 18.152344 7.628906 16.300781 8.648438 C 15.902344 8.871094 15.476562 9.300781 15.46875 9.640625 C 15.40625 13.042969 15.429688 16.449219 15.429688 19.722656 L 22.675781 18.292969 Z M 4.824219 20.058594 L 12.210938 20.058594 L 12.257812 19.699219 L 6.335938 19.113281 L 6.335938 9.542969 L 4.824219 9.542969 Z M 17.773438 19.695312 C 17.789062 19.816406 17.808594 19.941406 17.828125 20.066406 L 25.132812 20.066406 L 25.132812 9.542969 L 23.546875 9.542969 L 23.546875 19.105469 Z M 17.773438 19.695312 "/>
<path style=" stroke:none;fill-rule:nonzero;fill:rgb(100%,100%,100%);fill-opacity:1;" d="M 3.867188 21.824219 C 4.976562 21.835938 6.089844 21.898438 7.195312 21.863281 C 9.761719 21.78125 12.28125 21.808594 14.507812 22.949219 L 3.867188 22.949219 Z M 3.867188 21.824219 "/>
<path style=" stroke:none;fill-rule:nonzero;fill:rgb(100%,100%,100%);fill-opacity:1;" d="M 14.539062 19.726562 L 7.296875 18.304688 L 7.296875 7.40625 C 9.792969 7.21875 12.046875 7.652344 13.992188 8.859375 C 14.292969 9.042969 14.515625 9.4375 14.515625 9.734375 C 14.554688 13.109375 14.539062 16.488281 14.539062 19.726562 Z M 13.765625 11.710938 C 12.554688 10.382812 9.382812 9.671875 8.265625 10.34375 Z M 13.453125 13.757812 C 12.324219 12.496094 9.5625 11.890625 8.175781 12.460938 Z M 7.984375 14.5 L 13.683594 15.894531 C 12.703125 14.710938 9.824219 13.988281 7.984375 14.5 Z M 7.984375 14.5 "/>
<path style=" stroke:none;fill-rule:nonzero;fill:rgb(100%,100%,100%);fill-opacity:1;" d="M 22.675781 7.414062 L 22.675781 18.292969 L 15.4375 19.722656 C 15.4375 16.449219 15.410156 13.042969 15.472656 9.640625 C 15.480469 9.300781 15.90625 8.871094 16.304688 8.648438 C 18.152344 7.628906 20.25 7.222656 22.675781 7.414062 Z M 22.171875 14.464844 C 19.976562 13.984375 16.917969 14.863281 16.671875 15.851562 Z M 16.667969 13.761719 L 21.816406 12.464844 C 19.964844 12 17.5 12.628906 16.667969 13.761719 Z M 22.023438 10.296875 C 20.261719 9.714844 17.117188 10.53125 16.5625 11.636719 Z M 22.023438 10.296875 "/>
<path style=" stroke:none;fill-rule:nonzero;fill:rgb(100%,100%,100%);fill-opacity:1;" d="M 4.824219 20.058594 L 4.824219 9.542969 L 6.335938 9.542969 L 6.335938 19.113281 L 12.261719 19.699219 L 12.214844 20.058594 Z M 4.824219 20.058594 "/>
<path style=" stroke:none;fill-rule:nonzero;fill:rgb(100%,100%,100%);fill-opacity:1;" d="M 17.773438 19.695312 L 23.546875 19.105469 L 23.546875 9.542969 L 25.132812 9.542969 L 25.132812 20.066406 L 17.828125 20.066406 C 17.808594 19.941406 17.789062 19.816406 17.773438 19.695312 Z M 17.773438 19.695312 "/>
<path style=" stroke:none;fill-rule:nonzero;fill:rgb(0%,0%,0%);fill-opacity:1;" d="M 13.765625 11.710938 L 8.265625 10.339844 C 9.378906 9.671875 12.554688 10.382812 13.765625 11.710938 Z M 13.765625 11.710938 "/>
<path style=" stroke:none;fill-rule:nonzero;fill:rgb(0%,0%,0%);fill-opacity:1;" d="M 13.453125 13.757812 L 8.175781 12.464844 C 9.5625 11.890625 12.328125 12.492188 13.453125 13.757812 Z M 13.453125 13.757812 "/>
<path style=" stroke:none;fill-rule:nonzero;fill:rgb(0%,0%,0%);fill-opacity:1;" d="M 7.984375 14.5 C 9.824219 13.988281 12.703125 14.710938 13.683594 15.894531 Z M 7.984375 14.5 "/>
<path style=" stroke:none;fill-rule:nonzero;fill:rgb(0%,0%,0%);fill-opacity:1;" d="M 22.171875 14.464844 L 16.671875 15.851562 C 16.917969 14.859375 19.976562 13.984375 22.171875 14.464844 Z M 22.171875 14.464844 "/>
<path style=" stroke:none;fill-rule:nonzero;fill:rgb(0%,0%,0%);fill-opacity:1;" d="M 16.667969 13.761719 C 17.5 12.628906 19.964844 12 21.816406 12.464844 Z M 16.667969 13.761719 "/>
<path style=" stroke:none;fill-rule:nonzero;fill:rgb(0%,0%,0%);fill-opacity:1;" d="M 22.023438 10.296875 L 16.5625 11.636719 C 17.121094 10.53125 20.261719 9.714844 22.023438 10.296875 Z M 22.023438 10.296875 "/>
</g>
</svg>
