<?xml version="1.0" encoding="UTF-8"?>
<svg xmlns="http://www.w3.org/2000/svg" xmlns:xlink="http://www.w3.org/1999/xlink" width="30pt" height="30pt" viewBox="0 0 30 30" version="1.1">
<g id="surface1">
<path style="fill-rule:nonzero;fill:rgb(100%,100%,100%);fill-opacity:1;stroke-width:15.11811;stroke-linecap:butt;stroke-linejoin:miter;stroke:rgb(0.392157%,0.392157%,0.392157%);stroke-opacity:1;stroke-miterlimit:10;" d="M 428.746485 216.112868 C 428.746485 333.551875 333.551875 428.746485 216.112868 428.746485 C 98.730899 428.746485 3.536289 333.551875 3.536289 216.112868 C 3.536289 98.730899 98.730899 3.536289 216.112868 3.536289 C 333.551875 3.536289 428.746485 98.730899 428.746485 216.112868 Z M 428.746485 216.112868 " transform="matrix(0.0684863,0,0,0.0684863,0,0)"/>
<path style=" stroke:none;fill-rule:nonzero;fill:rgb(0%,0%,0%);fill-opacity:1;" d="M 26.113281 19.507812 L 3.492188 19.507812 C 3.492188 21.128906 4.742188 21.878906 5.742188 21.878906 L 23.863281 21.878906 C 25.0625 21.878906 26.113281 20.945312 26.113281 19.507812 Z M 26.113281 19.507812 "/>
<path style=" stroke:none;fill-rule:nonzero;fill:rgb(0%,0%,0%);fill-opacity:1;" d="M 8.320312 8.09375 L 8.320312 16.847656 C 8.320312 18.03125 9.355469 18.96875 10.476562 18.96875 L 19.230469 18.96875 C 20.496094 18.96875 21.355469 17.921875 21.355469 16.847656 L 21.355469 16.121094 C 23.855469 16.121094 25.664062 14.265625 25.664062 12.109375 C 25.664062 9.902344 23.886719 8.09375 21.824219 8.09375 Z M 8.320312 8.09375 "/>
<path style=" stroke:none;fill-rule:nonzero;fill:rgb(100%,100%,100%);fill-opacity:1;" d="M 24.074219 12.113281 C 24.082031 11.339844 23.53125 9.742188 21.824219 9.742188 L 21.355469 9.742188 L 21.355469 14.457031 C 23.136719 14.570312 24.074219 13.367188 24.074219 12.113281 Z M 24.074219 12.113281 "/>
</g>
</svg>
