<?xml version="1.0" encoding="UTF-8"?>
<svg xmlns="http://www.w3.org/2000/svg" xmlns:xlink="http://www.w3.org/1999/xlink" width="30pt" height="30pt" viewBox="0 0 30 30" version="1.1">
<g id="surface1">
<path style="fill-rule:nonzero;fill:rgb(100%,100%,100%);fill-opacity:1;stroke-width:15.11811;stroke-linecap:butt;stroke-linejoin:miter;stroke:rgb(0%,0%,0%);stroke-opacity:1;stroke-miterlimit:10;" d="M 428.746485 216.112868 C 428.746485 333.551875 333.551875 428.746485 216.112868 428.746485 C 98.730899 428.746485 3.536289 333.551875 3.536289 216.112868 C 3.536289 98.730899 98.730899 3.536289 216.112868 3.536289 C 333.551875 3.536289 428.746485 98.730899 428.746485 216.112868 Z M 428.746485 216.112868 " transform="matrix(0.0684863,0,0,0.0684863,0,0)"/>
<path style=" stroke:none;fill-rule:nonzero;fill:rgb(100%,100%,100%);fill-opacity:1;" d="M 3.53125 21.835938 C 4.675781 21.855469 5.824219 21.917969 6.96875 21.878906 C 9.609375 21.796875 12.210938 21.824219 14.503906 23 L 3.53125 23 Z M 3.53125 21.835938 "/>
<path style=" stroke:none;fill-rule:nonzero;fill:rgb(100%,100%,100%);fill-opacity:1;" d="M 14.539062 19.679688 L 7.070312 18.210938 L 7.070312 6.972656 C 9.644531 6.78125 11.964844 7.226562 13.972656 8.472656 C 14.285156 8.660156 14.511719 9.066406 14.515625 9.375 C 14.554688 12.855469 14.539062 16.335938 14.539062 19.679688 Z M 13.742188 11.410156 C 12.492188 10.042969 9.222656 9.308594 8.066406 10 Z M 13.417969 13.523438 C 12.253906 12.222656 9.40625 11.597656 7.976562 12.1875 Z M 7.773438 14.289062 L 13.65625 15.722656 C 12.644531 14.503906 9.675781 13.761719 7.773438 14.289062 Z M 7.773438 14.289062 "/>
<path style=" stroke:none;fill-rule:nonzero;fill:rgb(100%,100%,100%);fill-opacity:1;" d="M 22.929688 6.976562 L 22.929688 18.199219 L 15.464844 19.671875 C 15.464844 16.296875 15.4375 12.785156 15.503906 9.273438 C 15.507812 8.929688 15.949219 8.484375 16.359375 8.257812 C 18.269531 7.203125 20.425781 6.785156 22.929688 6.976562 Z M 22.414062 14.25 C 20.144531 13.757812 16.992188 14.664062 16.738281 15.679688 Z M 16.734375 13.527344 L 22.039062 12.1875 C 20.132812 11.710938 17.59375 12.359375 16.734375 13.527344 Z M 22.257812 9.953125 C 20.4375 9.355469 17.195312 10.195312 16.625 11.335938 Z M 22.257812 9.953125 "/>
<path style=" stroke:none;fill-rule:nonzero;fill:rgb(100%,100%,100%);fill-opacity:1;" d="M 4.523438 20.019531 L 4.523438 9.179688 L 6.078125 9.179688 L 6.078125 19.046875 L 12.1875 19.648438 L 12.144531 20.019531 Z M 4.523438 20.019531 "/>
<path style=" stroke:none;fill-rule:nonzero;fill:rgb(100%,100%,100%);fill-opacity:1;" d="M 17.875 19.648438 L 23.828125 19.039062 L 23.828125 9.179688 L 25.464844 9.179688 L 25.464844 20.027344 L 17.933594 20.027344 C 17.910156 19.898438 17.894531 19.773438 17.875 19.648438 Z M 17.875 19.648438 "/>
<path style=" stroke:none;fill-rule:nonzero;fill:rgb(0%,0%,0%);fill-opacity:1;" d="M 7.554688 23.640625 C 7.078125 23.636719 6.65625 23.375 6.507812 22.988281 C 6.355469 22.597656 6.511719 22.164062 6.886719 21.917969 L 9.394531 20.296875 L 9.394531 9.808594 L 6.886719 8.164062 C 6.402344 7.847656 6.300781 7.25 6.667969 6.828125 C 7.03125 6.40625 7.726562 6.316406 8.214844 6.632812 L 11.167969 8.550781 C 11.445312 8.726562 11.605469 9.011719 11.605469 9.3125 L 11.605469 20.800781 C 11.59375 21.089844 11.433594 21.359375 11.167969 21.53125 L 8.214844 23.445312 C 8.027344 23.574219 7.792969 23.640625 7.554688 23.640625 Z M 7.554688 23.640625 "/>
<path style=" stroke:none;fill-rule:nonzero;fill:rgb(0%,0%,0%);fill-opacity:1;" d="M 22.292969 23.640625 C 22.054688 23.640625 21.824219 23.574219 21.632812 23.445312 L 18.679688 21.53125 C 18.402344 21.351562 18.242188 21.070312 18.242188 20.769531 L 18.242188 9.28125 C 18.253906 8.992188 18.414062 8.722656 18.679688 8.550781 L 21.632812 6.640625 C 22.121094 6.359375 22.777344 6.457031 23.128906 6.863281 C 23.480469 7.265625 23.40625 7.835938 22.960938 8.164062 L 20.453125 9.789062 L 20.453125 20.277344 L 22.960938 21.898438 C 23.335938 22.144531 23.492188 22.574219 23.339844 22.96875 C 23.191406 23.355469 22.769531 23.617188 22.292969 23.621094 Z M 22.292969 23.640625 "/>
</g>
</svg>
