<?xml version="1.0" encoding="UTF-8"?>
<svg xmlns="http://www.w3.org/2000/svg" xmlns:xlink="http://www.w3.org/1999/xlink" width="16pt" height="16pt" viewBox="0 0 16 16" version="1.1">
<g id="surface1">
<path style="fill-rule:nonzero;fill:rgb(100%,100%,100%);fill-opacity:1;stroke-width:15.11811;stroke-linecap:butt;stroke-linejoin:miter;stroke:rgb(0%,0%,0%);stroke-opacity:1;stroke-miterlimit:10;" d="M 428.691821 216.140041 C 428.691821 333.602867 333.602867 428.691821 216.140041 428.691821 C 98.677216 428.691821 3.588262 333.602867 3.588262 216.140041 C 3.588262 98.677216 98.677216 3.588262 216.140041 3.588262 C 333.602867 3.588262 428.691821 98.677216 428.691821 216.140041 Z M 428.691821 216.140041 " transform="matrix(0.037013,0,0,0.037013,0,0)"/>
<path style=" stroke:none;fill-rule:nonzero;fill:rgb(0%,0%,0%);fill-opacity:1;" d="M 4.226562 4.457031 C 4.277344 4.199219 4.324219 3.964844 4.367188 3.726562 C 4.398438 3.585938 4.417969 3.445312 4.453125 3.308594 C 4.460938 3.265625 4.492188 3.226562 4.523438 3.195312 C 5.195312 2.757812 5.859375 2.320312 6.527344 1.882812 C 6.582031 1.851562 6.648438 1.832031 6.710938 1.832031 C 6.976562 1.824219 7.238281 1.828125 7.5 1.832031 C 7.570312 1.832031 7.601562 1.8125 7.597656 1.742188 C 7.589844 1.664062 7.597656 1.585938 7.597656 1.507812 C 7.597656 1.457031 7.613281 1.433594 7.667969 1.433594 C 7.976562 1.433594 8.285156 1.433594 8.589844 1.433594 C 8.644531 1.433594 8.664062 1.453125 8.664062 1.503906 C 8.660156 1.582031 8.664062 1.65625 8.660156 1.730469 C 8.652344 1.808594 8.679688 1.832031 8.757812 1.832031 C 9.050781 1.828125 9.339844 1.832031 9.632812 1.832031 C 9.773438 1.824219 9.90625 1.871094 10.015625 1.960938 C 10.179688 2.101562 10.214844 2.34375 10.140625 2.539062 C 10.070312 2.726562 9.878906 2.851562 9.65625 2.851562 C 9.460938 2.851562 9.269531 2.851562 9.074219 2.851562 L 8.976562 2.851562 L 8.976562 4.066406 C 9.089844 4.082031 9.199219 4.085938 9.3125 4.113281 C 9.789062 4.214844 10.195312 4.425781 10.492188 4.804688 C 10.632812 4.980469 10.707031 5.199219 10.703125 5.425781 C 10.703125 8.367188 10.703125 11.3125 10.703125 14.257812 C 10.703125 14.367188 10.703125 14.367188 10.585938 14.367188 L 5.765625 14.367188 C 5.648438 14.367188 5.648438 14.367188 5.648438 14.253906 C 5.648438 11.320312 5.648438 8.386719 5.648438 5.453125 C 5.648438 5.039062 5.851562 4.726562 6.183594 4.480469 C 6.507812 4.234375 6.902344 4.09375 7.3125 4.074219 C 7.363281 4.074219 7.382812 4.058594 7.382812 4.011719 C 7.382812 3.648438 7.382812 3.28125 7.382812 2.914062 C 7.382812 2.863281 7.363281 2.847656 7.308594 2.851562 C 7.125 2.851562 6.941406 2.851562 6.753906 2.851562 C 6.722656 2.851562 6.691406 2.859375 6.660156 2.875 C 6.042969 3.203125 5.429688 3.53125 4.820312 3.863281 C 4.789062 3.882812 4.765625 3.914062 4.757812 3.949219 C 4.71875 4.101562 4.6875 4.246094 4.648438 4.398438 C 4.644531 4.417969 4.617188 4.449219 4.601562 4.453125 C 4.476562 4.460938 4.363281 4.457031 4.226562 4.457031 Z M 4.226562 4.457031 "/>
</g>
</svg>
