<?xml version="1.0" encoding="UTF-8"?>
<svg xmlns="http://www.w3.org/2000/svg" xmlns:xlink="http://www.w3.org/1999/xlink" width="16pt" height="16pt" viewBox="0 0 16 16" version="1.1">
<g id="surface1">
<path style="fill-rule:nonzero;fill:rgb(100%,100%,100%);fill-opacity:1;stroke-width:15.11811;stroke-linecap:butt;stroke-linejoin:miter;stroke:rgb(0%,0%,0%);stroke-opacity:1;stroke-miterlimit:10;" d="M 428.691821 216.140041 C 428.691821 333.602867 333.602867 428.691821 216.140041 428.691821 C 98.677216 428.691821 3.588262 333.602867 3.588262 216.140041 C 3.588262 98.677216 98.677216 3.588262 216.140041 3.588262 C 333.602867 3.588262 428.691821 98.677216 428.691821 216.140041 Z M 428.691821 216.140041 " transform="matrix(0.037013,0,0,0.037013,0,0)"/>
<path style=" stroke:none;fill-rule:nonzero;fill:rgb(0.784314%,0.784314%,1.176471%);fill-opacity:1;" d="M 14.019531 8.640625 C 13.917969 8.777344 13.8125 8.898438 13.613281 8.898438 C 13.390625 8.890625 13.253906 8.742188 13.253906 8.488281 C 13.25 7.753906 13.25 7.023438 13.253906 6.289062 C 13.253906 6.175781 13.242188 6.085938 13.058594 6.140625 L 13.058594 6.351562 C 13.058594 8.429688 13.058594 10.507812 13.058594 12.585938 C 13.058594 12.664062 13.0625 12.746094 13.050781 12.828125 C 13.003906 13.085938 12.808594 13.242188 12.539062 13.238281 C 12.273438 13.234375 12.070312 13.078125 12.027344 12.832031 C 12.011719 12.746094 12.007812 12.65625 12.007812 12.570312 C 12.007812 11.410156 12.007812 10.257812 12.007812 9.097656 C 12.007812 9.042969 12.015625 8.992188 12.007812 8.949219 C 11.996094 8.921875 11.953125 8.878906 11.9375 8.882812 C 11.90625 8.890625 11.859375 8.921875 11.851562 8.953125 C 11.835938 8.996094 11.847656 9.054688 11.847656 9.101562 C 11.847656 10.296875 11.847656 11.488281 11.847656 12.683594 C 11.847656 13.011719 11.675781 13.210938 11.382812 13.234375 C 11.085938 13.257812 10.867188 13.085938 10.84375 12.808594 C 10.835938 12.726562 10.835938 12.648438 10.835938 12.566406 C 10.835938 10.480469 10.835938 8.398438 10.835938 6.316406 C 10.835938 6.210938 10.867188 6.085938 10.648438 6.140625 L 10.648438 6.332031 C 10.648438 7.039062 10.648438 7.746094 10.648438 8.453125 C 10.648438 8.757812 10.457031 8.933594 10.191406 8.890625 C 9.988281 8.855469 9.878906 8.726562 9.867188 8.496094 C 9.863281 8.195312 9.867188 7.898438 9.867188 7.597656 C 9.867188 7.066406 9.867188 6.535156 9.867188 6.003906 C 9.867188 5.230469 10.339844 4.789062 11.148438 4.789062 C 11.671875 4.789062 12.195312 4.789062 12.71875 4.789062 C 13.402344 4.789062 13.789062 5.054688 13.996094 5.671875 C 14 5.6875 14.019531 5.703125 14.027344 5.71875 L 14.027344 8.640625 Z M 14.019531 8.640625 "/>
<path style=" stroke:none;fill-rule:nonzero;fill:rgb(0.784314%,0.784314%,1.176471%);fill-opacity:1;" d="M 12.113281 2.863281 C 12.257812 2.9375 12.414062 2.992188 12.539062 3.089844 C 12.851562 3.339844 12.921875 3.757812 12.734375 4.097656 C 12.554688 4.421875 12.164062 4.605469 11.789062 4.542969 C 11.390625 4.476562 11.089844 4.171875 11.046875 3.785156 C 11.007812 3.425781 11.242188 3.0625 11.613281 2.921875 C 11.660156 2.902344 11.707031 2.882812 11.753906 2.863281 Z M 12.113281 2.863281 "/>
<path style=" stroke:none;fill-rule:nonzero;fill:rgb(0.784314%,0.784314%,1.176471%);fill-opacity:1;" d="M 8.1875 2.980469 L 8.628906 2.980469 L 8.628906 13.183594 L 8.1875 13.183594 Z M 8.1875 2.980469 "/>
<path style=" stroke:none;fill-rule:nonzero;fill:rgb(0.784314%,0.784314%,1.176471%);fill-opacity:1;" d="M 5.546875 6.214844 C 5.496094 6.625 5.445312 7.03125 5.410156 7.4375 C 5.402344 7.527344 5.449219 7.628906 5.492188 7.714844 C 5.894531 8.601562 6.300781 9.492188 6.710938 10.382812 C 6.726562 10.425781 6.742188 10.46875 6.773438 10.539062 L 5.234375 10.539062 C 5.183594 11.121094 5.132812 11.683594 5.082031 12.246094 C 5.054688 12.523438 5.007812 12.804688 4.976562 13.078125 C 4.960938 13.210938 4.894531 13.273438 4.753906 13.253906 C 4.710938 13.25 4.667969 13.253906 4.625 13.253906 C 4.007812 13.253906 4 13.253906 3.945312 12.664062 C 3.882812 11.992188 3.839844 11.320312 3.789062 10.648438 C 3.785156 10.605469 3.777344 10.570312 3.769531 10.515625 L 2.265625 10.515625 C 2.3125 10.410156 2.339844 10.339844 2.375 10.273438 C 2.757812 9.460938 3.144531 8.660156 3.507812 7.839844 C 3.589844 7.664062 3.625 7.449219 3.621094 7.257812 C 3.609375 6.910156 3.546875 6.5625 3.503906 6.160156 C 3.445312 6.25 3.402344 6.300781 3.378906 6.351562 C 3.039062 7.007812 2.707031 7.664062 2.371094 8.320312 C 2.335938 8.398438 2.300781 8.496094 2.234375 8.527344 C 2.117188 8.585938 1.960938 8.648438 1.839844 8.621094 C 1.773438 8.609375 1.710938 8.429688 1.695312 8.320312 C 1.683594 8.234375 1.734375 8.132812 1.777344 8.039062 C 2.117188 7.332031 2.476562 6.632812 2.800781 5.914062 C 3.003906 5.460938 3.335938 5.261719 3.847656 5.28125 C 4.390625 5.304688 4.933594 5.304688 5.476562 5.308594 C 5.851562 5.3125 6.097656 5.46875 6.238281 5.800781 C 6.574219 6.589844 6.929688 7.375 7.269531 8.167969 C 7.300781 8.25 7.320312 8.339844 7.3125 8.429688 C 7.300781 8.628906 7.140625 8.714844 6.972656 8.613281 C 6.859375 8.542969 6.761719 8.4375 6.703125 8.320312 C 6.367188 7.6875 6.039062 7.042969 5.710938 6.402344 C 5.675781 6.339844 5.636719 6.273438 5.601562 6.210938 C 5.578125 6.210938 5.566406 6.210938 5.546875 6.214844 "/>
<path style=" stroke:none;fill-rule:nonzero;fill:rgb(0.784314%,0.784314%,1.176471%);fill-opacity:1;" d="M 4.5 4.835938 C 3.929688 4.828125 3.480469 4.382812 3.484375 3.832031 C 3.488281 3.300781 3.941406 2.863281 4.480469 2.863281 C 5.042969 2.859375 5.511719 3.316406 5.507812 3.859375 C 5.507812 4.402344 5.054688 4.835938 4.5 4.835938 "/>
</g>
</svg>
