<?xml version="1.0" encoding="UTF-8"?>
<svg xmlns="http://www.w3.org/2000/svg" xmlns:xlink="http://www.w3.org/1999/xlink" width="16pt" height="16pt" viewBox="0 0 16 16" version="1.1">
<g id="surface1">
<path style="fill-rule:nonzero;fill:rgb(100%,100%,100%);fill-opacity:1;stroke-width:15.11811;stroke-linecap:butt;stroke-linejoin:miter;stroke:rgb(0%,0%,0%);stroke-opacity:1;stroke-miterlimit:10;" d="M 428.691821 216.140041 C 428.691821 333.602867 333.602867 428.691821 216.140041 428.691821 C 98.677216 428.691821 3.588262 333.602867 3.588262 216.140041 C 3.588262 98.677216 98.677216 3.588262 216.140041 3.588262 C 333.602867 3.588262 428.691821 98.677216 428.691821 216.140041 Z M 428.691821 216.140041 " transform="matrix(0.037013,0,0,0.037013,0,0)"/>
<path style="fill-rule:nonzero;fill:rgb(100%,100%,100%);fill-opacity:1;stroke-width:7.604626;stroke-linecap:butt;stroke-linejoin:miter;stroke:rgb(0%,0%,0%);stroke-opacity:1;stroke-miterlimit:10;" d="M 89.073337 70.393265 L 89.073337 363.680949 L 316.400315 363.680949 L 316.400315 72.715082 C 314.711721 72.926157 313.234201 73.242768 311.756681 73.559379 C 313.234201 73.242768 314.711721 72.926157 316.400315 72.715082 L 316.400315 70.393265 Z M 89.073337 70.393265 " transform="matrix(0.037013,0,0,0.037013,0,0)"/>
<path style=" stroke:none;fill-rule:nonzero;fill:rgb(0%,0%,0%);fill-opacity:1;" d="M 7.742188 6.945312 C 7.742188 7.066406 7.742188 7.179688 7.742188 7.300781 C 7.742188 9 7.742188 10.695312 7.742188 12.398438 C 7.742188 12.539062 7.722656 12.671875 7.621094 12.777344 C 7.492188 12.914062 7.335938 12.960938 7.160156 12.90625 C 6.980469 12.851562 6.875 12.726562 6.839844 12.546875 C 6.832031 12.492188 6.832031 12.429688 6.832031 12.375 C 6.832031 11.554688 6.832031 10.742188 6.832031 9.925781 C 6.832031 9.6875 6.820312 9.679688 6.566406 9.726562 C 6.5625 9.773438 6.554688 9.828125 6.554688 9.882812 C 6.554688 10.71875 6.554688 11.554688 6.554688 12.390625 C 6.554688 12.539062 6.535156 12.675781 6.429688 12.78125 C 6.304688 12.910156 6.148438 12.960938 5.976562 12.90625 C 5.800781 12.851562 5.6875 12.734375 5.652344 12.546875 C 5.640625 12.484375 5.644531 12.421875 5.644531 12.359375 C 5.644531 10.601562 5.644531 8.835938 5.644531 7.078125 C 5.644531 7.035156 5.644531 6.992188 5.644531 6.945312 C 5.632812 6.945312 5.617188 6.941406 5.609375 6.941406 C 5.597656 7.023438 5.578125 7.109375 5.566406 7.195312 C 5.464844 7.792969 5.378906 8.386719 5.273438 8.980469 C 5.253906 9.089844 5.183594 9.207031 5.101562 9.28125 C 4.996094 9.382812 4.851562 9.386719 4.722656 9.308594 C 4.570312 9.210938 4.496094 9.066406 4.519531 8.886719 C 4.554688 8.613281 4.597656 8.335938 4.636719 8.0625 C 4.71875 7.503906 4.816406 6.949219 4.878906 6.390625 C 4.925781 5.964844 5.179688 5.730469 5.535156 5.585938 C 5.871094 5.441406 6.226562 5.335938 6.601562 5.375 C 6.664062 5.382812 6.726562 5.382812 6.789062 5.375 C 7.148438 5.335938 7.492188 5.433594 7.820312 5.570312 C 7.976562 5.636719 8.121094 5.738281 8.253906 5.84375 C 8.398438 5.960938 8.472656 6.125 8.496094 6.316406 C 8.609375 7.121094 8.734375 7.929688 8.851562 8.738281 C 8.863281 8.800781 8.871094 8.863281 8.875 8.921875 C 8.882812 9.140625 8.726562 9.339844 8.535156 9.363281 C 8.335938 9.382812 8.164062 9.242188 8.121094 9.015625 C 8.0625 8.6875 8.015625 8.367188 7.960938 8.039062 C 7.910156 7.699219 7.855469 7.367188 7.804688 7.027344 C 7.796875 7.003906 7.789062 6.976562 7.78125 6.945312 C 7.761719 6.945312 7.753906 6.945312 7.742188 6.945312 Z M 7.742188 6.945312 "/>
<path style=" stroke:none;fill-rule:nonzero;fill:rgb(0%,0%,0%);fill-opacity:1;" d="M 6.523438 5.164062 C 6.023438 5.164062 5.632812 4.742188 5.632812 4.210938 C 5.636719 3.695312 6.039062 3.28125 6.535156 3.289062 C 7.03125 3.289062 7.433594 3.710938 7.433594 4.226562 C 7.433594 4.742188 7.023438 5.164062 6.523438 5.164062 Z M 6.523438 5.164062 "/>
<path style=" stroke:none;fill-rule:nonzero;fill:rgb(100%,100%,100%);fill-opacity:1;" d="M 11.371094 2.085938 L 12.226562 2.085938 L 12.226562 13.777344 L 11.371094 13.777344 Z M 11.371094 2.085938 "/>
<path style=" stroke:none;fill-rule:nonzero;fill:rgb(0%,0%,0%);fill-opacity:1;" d="M 10.507812 6.917969 C 10.507812 6.226562 10.507812 5.546875 10.507812 4.828125 C 10.195312 5.113281 9.910156 5.371094 9.589844 5.660156 C 9.589844 5.351562 9.585938 5.089844 9.59375 4.828125 C 9.59375 4.78125 9.625 4.726562 9.65625 4.695312 C 10.0625 4.3125 10.464844 3.941406 10.878906 3.554688 C 11.300781 3.941406 11.714844 4.316406 12.125 4.695312 C 12.15625 4.71875 12.179688 4.769531 12.179688 4.808594 C 12.183594 5.070312 12.183594 5.335938 12.183594 5.65625 C 11.855469 5.351562 11.570312 5.089844 11.253906 4.800781 C 11.253906 5.53125 11.253906 6.214844 11.253906 6.921875 C 11.007812 6.917969 10.773438 6.917969 10.507812 6.917969 Z M 10.507812 6.917969 "/>
<path style=" stroke:none;fill-rule:nonzero;fill:rgb(0%,0%,0%);fill-opacity:1;" d="M 11.191406 9.15625 C 11.191406 9.871094 11.191406 10.570312 11.191406 11.320312 C 11.507812 11.023438 11.800781 10.75 12.128906 10.441406 C 12.128906 10.761719 12.132812 11.039062 12.125 11.308594 C 12.125 11.355469 12.085938 11.410156 12.050781 11.441406 C 11.648438 11.820312 11.246094 12.1875 10.828125 12.582031 C 10.414062 12.1875 10.003906 11.804688 9.601562 11.410156 C 9.570312 11.378906 9.550781 11.316406 9.542969 11.265625 C 9.539062 11.007812 9.539062 10.746094 9.539062 10.4375 C 9.851562 10.722656 10.140625 10.992188 10.460938 11.285156 C 10.460938 10.550781 10.460938 9.863281 10.460938 9.164062 C 10.707031 9.15625 10.9375 9.15625 11.191406 9.15625 Z M 11.191406 9.15625 "/>
</g>
</svg>
