<?xml version="1.0" encoding="UTF-8"?>
<svg xmlns="http://www.w3.org/2000/svg" xmlns:xlink="http://www.w3.org/1999/xlink" width="16pt" height="16pt" viewBox="0 0 16 16" version="1.1">
<g id="surface1">
<path style="fill-rule:nonzero;fill:rgb(100%,100%,100%);fill-opacity:1;stroke-width:15.11811;stroke-linecap:butt;stroke-linejoin:miter;stroke:rgb(0%,0%,0%);stroke-opacity:1;stroke-miterlimit:10;" d="M 428.691821 216.140041 C 428.691821 333.602867 333.602867 428.691821 216.140041 428.691821 C 98.677216 428.691821 3.588262 333.602867 3.588262 216.140041 C 3.588262 98.677216 98.677216 3.588262 216.140041 3.588262 C 333.602867 3.588262 428.691821 98.677216 428.691821 216.140041 Z M 428.691821 216.140041 " transform="matrix(0.037013,0,0,0.037013,0,0)"/>
<path style=" stroke:none;fill-rule:nonzero;fill:rgb(100%,100%,100%);fill-opacity:1;" d="M 1.910156 11.804688 C 2.527344 11.8125 3.148438 11.847656 3.765625 11.824219 C 5.195312 11.78125 6.601562 11.792969 7.839844 12.429688 L 1.910156 12.429688 Z M 1.910156 11.804688 "/>
<path style=" stroke:none;fill-rule:nonzero;fill:rgb(100%,100%,100%);fill-opacity:1;" d="M 9.660156 10.617188 L 12.878906 10.289062 L 12.878906 4.960938 L 13.761719 4.960938 L 13.761719 10.824219 L 9.691406 10.824219 C 9.679688 10.757812 9.667969 10.6875 9.660156 10.617188 Z M 9.660156 10.617188 "/>
<path style=" stroke:none;fill-rule:nonzero;fill:rgb(0%,0%,0%);fill-opacity:1;" d="M 7.835938 10.210938 C 7.835938 10.636719 7.835938 11.042969 7.835938 11.464844 C 7.011719 11.464844 6.203125 11.464844 5.367188 11.464844 C 5.367188 11.886719 5.367188 12.300781 5.367188 12.71875 C 4.515625 12.71875 3.691406 12.71875 2.855469 12.71875 C 2.855469 12.988281 2.855469 13.25 2.855469 13.507812 C 3.015625 13.554688 5.949219 13.582031 6.351562 13.539062 C 6.351562 13.164062 6.351562 12.78125 6.351562 12.394531 C 7.207031 12.394531 8.054688 12.394531 8.910156 12.394531 C 8.910156 11.976562 8.910156 11.566406 8.910156 11.132812 C 9.757812 11.132812 10.589844 11.132812 11.441406 11.132812 C 11.441406 10.738281 11.441406 10.367188 11.441406 9.980469 C 12.289062 9.980469 13.125 9.980469 13.96875 9.980469 C 13.96875 9.65625 13.96875 9.34375 13.96875 9.023438 C 12.742188 9.023438 11.511719 9.023438 10.269531 9.023438 C 10.269531 9.414062 10.269531 9.808594 10.269531 10.210938 C 9.453125 10.210938 8.652344 10.210938 7.835938 10.210938 Z M 7.835938 10.210938 "/>
<path style=" stroke:none;fill-rule:nonzero;fill:rgb(0%,0%,0%);fill-opacity:1;" d="M 10.351562 6.304688 C 10.683594 6.578125 11 6.828125 11.308594 7.085938 C 11.335938 7.101562 11.363281 7.148438 11.351562 7.171875 C 11.265625 7.570312 11.164062 7.960938 11.085938 8.363281 C 11.03125 8.609375 11.179688 8.832031 11.429688 8.886719 C 11.664062 8.933594 11.898438 8.832031 11.960938 8.570312 C 12.050781 8.210938 12.113281 7.84375 12.191406 7.480469 C 12.230469 7.289062 12.273438 7.089844 12.308594 6.898438 C 12.328125 6.808594 12.328125 6.726562 12.242188 6.65625 C 11.839844 6.339844 11.449219 6.019531 11.050781 5.703125 C 10.90625 5.59375 10.851562 5.460938 10.902344 5.277344 C 11.015625 5.367188 11.117188 5.453125 11.226562 5.535156 C 11.351562 5.632812 11.480469 5.742188 11.621094 5.832031 C 11.765625 5.917969 11.980469 5.851562 12.066406 5.71875 C 12.15625 5.574219 12.121094 5.421875 11.964844 5.3125 C 11.828125 5.210938 11.695312 5.113281 11.566406 5.003906 C 11.359375 4.832031 11.15625 4.652344 10.957031 4.472656 C 10.917969 4.4375 10.890625 4.378906 10.890625 4.332031 C 10.886719 4 10.898438 3.667969 10.882812 3.335938 C 10.882812 3.25 10.851562 3.15625 10.804688 3.074219 C 10.78125 3.027344 10.710938 2.96875 10.660156 2.964844 C 10.464844 2.957031 10.269531 2.964844 10.074219 2.980469 C 9.882812 2.992188 9.757812 3.125 9.640625 3.25 C 9.398438 3.527344 9.160156 3.808594 8.917969 4.089844 C 8.808594 4.21875 8.792969 4.378906 8.777344 4.535156 C 8.742188 4.886719 8.699219 5.238281 8.679688 5.59375 C 8.675781 5.757812 8.601562 5.917969 8.699219 6.085938 C 8.753906 6.179688 8.832031 6.226562 8.925781 6.242188 C 9.039062 6.257812 9.113281 6.195312 9.183594 6.117188 C 9.289062 6 9.285156 5.863281 9.300781 5.734375 C 9.320312 5.539062 9.320312 5.335938 9.332031 5.132812 C 9.339844 4.960938 9.351562 4.78125 9.382812 4.613281 C 9.398438 4.539062 9.476562 4.476562 9.523438 4.40625 C 9.539062 4.410156 9.542969 4.414062 9.554688 4.414062 C 9.542969 4.628906 9.53125 4.839844 9.519531 5.054688 C 9.515625 5.085938 9.507812 5.117188 9.507812 5.148438 C 9.492188 5.5 9.484375 5.851562 9.457031 6.203125 C 9.417969 6.605469 9.355469 7.007812 9.3125 7.40625 C 9.28125 7.660156 9.261719 7.910156 9.234375 8.164062 C 9.203125 8.421875 9.164062 8.675781 9.136719 8.933594 C 9.117188 9.097656 9.082031 9.257812 9.089844 9.417969 C 9.097656 9.605469 9.164062 9.777344 9.351562 9.878906 C 9.519531 9.96875 9.679688 9.941406 9.835938 9.835938 C 9.953125 9.757812 9.992188 9.648438 10.011719 9.527344 C 10.039062 9.367188 10.046875 9.203125 10.0625 9.039062 C 10.101562 8.609375 10.144531 8.175781 10.179688 7.746094 C 10.210938 7.390625 10.238281 7.039062 10.265625 6.679688 C 10.273438 6.59375 10.285156 6.503906 10.300781 6.414062 C 10.304688 6.382812 10.335938 6.347656 10.351562 6.304688 Z M 10.351562 6.304688 "/>
<path style=" stroke:none;fill-rule:nonzero;fill:rgb(0%,0%,0%);fill-opacity:1;" d="M 4.148438 8.117188 C 4.148438 8.1875 4.148438 8.226562 4.148438 8.269531 C 4.148438 9.492188 4.152344 10.710938 4.144531 11.933594 C 4.144531 12.175781 4.363281 12.339844 4.582031 12.34375 C 4.789062 12.347656 5.039062 12.179688 5.027344 11.933594 C 5.015625 11.480469 5.023438 11.023438 5.023438 10.539062 C 5.132812 10.617188 5.222656 10.683594 5.304688 10.753906 C 5.484375 10.894531 5.652344 11.039062 5.832031 11.175781 C 5.976562 11.285156 6.1875 11.28125 6.34375 11.179688 C 6.488281 11.082031 6.5625 10.867188 6.523438 10.710938 C 6.472656 10.535156 6.328125 10.4375 6.191406 10.335938 C 5.839844 10.066406 5.488281 9.796875 5.136719 9.53125 C 5.128906 9.527344 5.121094 9.523438 5.109375 9.515625 C 5.21875 9.34375 5.328125 9.171875 5.429688 8.996094 C 5.46875 8.929688 5.503906 8.835938 5.503906 8.761719 C 5.507812 8.316406 5.507812 7.867188 5.507812 7.425781 C 5.507812 7.339844 5.492188 7.257812 5.628906 7.257812 C 5.753906 7.261719 5.808594 7.3125 5.808594 7.445312 C 5.808594 7.90625 5.820312 8.367188 5.804688 8.828125 C 5.800781 9.046875 6.003906 9.167969 6.210938 9.074219 C 6.246094 9.0625 6.285156 9.007812 6.285156 8.972656 C 6.289062 8.429688 6.292969 7.882812 6.28125 7.339844 C 6.273438 7.230469 6.210938 7.117188 6.144531 7.023438 C 5.886719 6.695312 5.625 6.378906 5.355469 6.054688 C 5.183594 5.851562 4.945312 5.804688 4.6875 5.847656 C 4.605469 5.863281 4.523438 5.882812 4.445312 5.914062 C 4.226562 6 4.160156 6.175781 4.15625 6.382812 C 4.152344 6.648438 4.148438 6.925781 4.160156 7.195312 C 4.164062 7.285156 4.121094 7.335938 4.058594 7.382812 C 3.703125 7.652344 3.34375 7.921875 3.003906 8.207031 C 2.929688 8.265625 2.914062 8.410156 2.914062 8.515625 C 2.914062 8.628906 3 8.730469 3.121094 8.738281 C 3.210938 8.746094 3.320312 8.707031 3.394531 8.65625 C 3.632812 8.492188 3.878906 8.308594 4.148438 8.117188 Z M 4.148438 8.117188 "/>
<path style=" stroke:none;fill-rule:nonzero;fill:rgb(0%,0%,0%);fill-opacity:1;" d="M 9.710938 2.140625 C 9.746094 2.574219 10.039062 2.851562 10.539062 2.855469 C 10.957031 2.855469 11.289062 2.546875 11.285156 2.121094 C 11.28125 1.726562 10.949219 1.398438 10.488281 1.402344 C 10.035156 1.402344 9.71875 1.738281 9.710938 2.140625 Z M 9.710938 2.140625 "/>
<path style=" stroke:none;fill-rule:nonzero;fill:rgb(0%,0%,0%);fill-opacity:1;" d="M 4.660156 5.773438 C 5.082031 5.773438 5.445312 5.453125 5.449219 5.085938 C 5.457031 4.695312 5.085938 4.375 4.65625 4.375 C 4.226562 4.378906 3.871094 4.691406 3.875 5.070312 C 3.875 5.457031 4.210938 5.761719 4.660156 5.773438 Z M 4.660156 5.773438 "/>
</g>
</svg>
