<?xml version="1.0" encoding="UTF-8"?>
<svg xmlns="http://www.w3.org/2000/svg" xmlns:xlink="http://www.w3.org/1999/xlink" width="16pt" height="16pt" viewBox="0 0 16 16" version="1.1">
<g id="surface1">
<path style="fill-rule:nonzero;fill:rgb(100%,100%,100%);fill-opacity:1;stroke-width:15.11811;stroke-linecap:butt;stroke-linejoin:miter;stroke:rgb(0%,0%,0%);stroke-opacity:1;stroke-miterlimit:10;" d="M 428.691821 216.140041 C 428.691821 333.602867 333.602867 428.691821 216.140041 428.691821 C 98.677216 428.691821 3.588262 333.602867 3.588262 216.140041 C 3.588262 98.677216 98.677216 3.588262 216.140041 3.588262 C 333.602867 3.588262 428.691821 98.677216 428.691821 216.140041 Z M 428.691821 216.140041 " transform="matrix(0.037013,0,0,0.037013,0,0)"/>
<path style=" stroke:none;fill-rule:nonzero;fill:rgb(100%,100%,100%);fill-opacity:1;" d="M 1.910156 11.804688 C 2.527344 11.8125 3.148438 11.847656 3.765625 11.824219 C 5.195312 11.78125 6.601562 11.792969 7.839844 12.429688 L 1.910156 12.429688 Z M 1.910156 11.804688 "/>
<path style=" stroke:none;fill-rule:nonzero;fill:rgb(100%,100%,100%);fill-opacity:1;" d="M 9.660156 10.617188 L 12.878906 10.289062 L 12.878906 4.960938 L 13.761719 4.960938 L 13.761719 10.824219 L 9.691406 10.824219 C 9.679688 10.757812 9.667969 10.6875 9.660156 10.617188 Z M 9.660156 10.617188 "/>
<path style=" stroke:none;fill-rule:nonzero;fill:rgb(0%,0%,0%);fill-opacity:1;" d="M 1.804688 11.984375 C 1.804688 9.519531 1.804688 7.050781 1.804688 4.578125 C 3.609375 4.578125 5.40625 4.578125 7.210938 4.578125 C 7.210938 7.046875 7.210938 9.515625 7.210938 11.984375 C 5.414062 11.984375 3.609375 11.984375 1.804688 11.984375 Z M 4.40625 11.679688 C 4.445312 11.6875 4.464844 11.691406 4.484375 11.691406 C 5.035156 11.691406 5.585938 11.695312 6.132812 11.6875 C 6.195312 11.6875 6.257812 11.648438 6.304688 11.597656 C 6.476562 11.414062 6.632812 11.222656 6.804688 11.03125 C 6.875 10.953125 6.898438 10.867188 6.898438 10.757812 C 6.898438 8.902344 6.898438 7.046875 6.898438 5.191406 C 6.898438 4.992188 6.878906 4.964844 6.707031 4.964844 C 5.988281 4.964844 5.265625 4.964844 4.539062 4.964844 C 4.03125 4.964844 3.523438 4.964844 3.011719 4.964844 C 2.882812 4.964844 2.847656 5.007812 2.847656 5.164062 C 2.847656 5.203125 2.847656 5.242188 2.847656 5.28125 C 2.847656 6.65625 2.847656 8.039062 2.847656 9.414062 C 2.847656 9.496094 2.828125 9.546875 2.773438 9.601562 C 2.640625 9.71875 2.519531 9.847656 2.382812 9.960938 C 2.257812 10.070312 2.234375 10.210938 2.269531 10.382812 C 2.277344 10.410156 2.285156 10.441406 2.285156 10.46875 C 2.296875 10.746094 2.46875 10.859375 2.671875 10.710938 C 2.726562 10.679688 2.777344 10.628906 2.839844 10.582031 C 2.859375 10.777344 2.867188 10.949219 2.714844 11.070312 C 2.648438 11.121094 2.601562 11.191406 2.550781 11.253906 C 2.441406 11.394531 2.328125 11.535156 2.21875 11.679688 C 2.226562 11.683594 2.242188 11.6875 2.257812 11.6875 C 2.726562 11.6875 3.199219 11.691406 3.667969 11.683594 C 3.710938 11.683594 3.769531 11.648438 3.804688 11.613281 C 4.015625 11.398438 4.226562 11.175781 4.433594 10.960938 C 4.535156 10.863281 4.707031 10.871094 4.777344 10.980469 C 4.851562 11.085938 4.832031 11.230469 4.726562 11.347656 C 4.710938 11.367188 4.691406 11.386719 4.667969 11.410156 C 4.585938 11.492188 4.503906 11.582031 4.40625 11.679688 Z M 4.40625 11.679688 "/>
<path style=" stroke:none;fill-rule:nonzero;fill:rgb(0%,0%,0%);fill-opacity:1;" d="M 11.570312 7.445312 C 11.601562 7.3125 11.546875 7.246094 11.492188 7.171875 C 11.316406 6.941406 11.140625 6.710938 10.972656 6.476562 C 10.800781 6.242188 10.636719 6.007812 10.476562 5.773438 C 10.449219 5.734375 10.433594 5.664062 10.449219 5.628906 C 10.460938 5.59375 10.519531 5.570312 10.554688 5.566406 C 10.726562 5.554688 10.894531 5.5625 11.066406 5.5625 C 11.289062 5.5625 11.503906 5.5625 11.726562 5.5625 C 11.898438 5.5625 12.035156 5.648438 12.140625 5.8125 C 12.253906 5.984375 12.382812 6.136719 12.5 6.296875 C 12.640625 6.488281 12.777344 6.679688 12.917969 6.867188 C 13.039062 7.027344 13.160156 7.179688 13.277344 7.339844 C 13.425781 7.539062 13.570312 7.738281 13.714844 7.933594 C 13.769531 8.011719 13.824219 8.085938 13.882812 8.160156 C 13.964844 8.273438 13.976562 8.359375 13.898438 8.460938 C 13.710938 8.71875 13.515625 8.972656 13.324219 9.226562 C 13.160156 9.449219 12.996094 9.683594 12.824219 9.910156 C 12.699219 10.085938 12.566406 10.25 12.4375 10.421875 C 12.332031 10.5625 12.226562 10.707031 12.117188 10.84375 C 12.058594 10.917969 11.992188 10.980469 11.929688 11.046875 C 11.917969 11.054688 11.898438 11.054688 11.882812 11.054688 C 11.433594 11.054688 10.988281 11.050781 10.535156 11.046875 C 10.503906 11.046875 10.445312 11.03125 10.445312 11.011719 C 10.433594 10.972656 10.4375 10.914062 10.460938 10.882812 C 10.585938 10.699219 10.714844 10.523438 10.839844 10.347656 C 10.988281 10.144531 11.132812 9.941406 11.273438 9.738281 C 11.375 9.597656 11.476562 9.460938 11.574219 9.316406 C 11.628906 9.238281 11.59375 9.164062 11.511719 9.15625 C 11.492188 9.152344 11.476562 9.15625 11.453125 9.15625 C 10.515625 9.160156 9.582031 9.160156 8.644531 9.164062 C 8.496094 9.164062 8.441406 9.097656 8.441406 8.921875 C 8.441406 8.5 8.441406 8.074219 8.441406 7.652344 C 8.441406 7.511719 8.507812 7.421875 8.628906 7.421875 C 8.925781 7.421875 9.222656 7.398438 9.511719 7.429688 C 10.132812 7.492188 10.757812 7.441406 11.382812 7.460938 C 11.453125 7.476562 11.519531 7.453125 11.570312 7.445312 Z M 11.570312 7.445312 "/>
<path style=" stroke:none;fill-rule:nonzero;fill:rgb(0%,0%,0%);fill-opacity:1;" d="M 4.695312 7.394531 C 4.707031 7.394531 4.714844 7.398438 4.726562 7.398438 C 4.734375 7.429688 4.75 7.460938 4.757812 7.5 C 4.785156 7.597656 4.808594 7.695312 4.828125 7.789062 C 4.851562 7.890625 4.894531 7.957031 4.976562 8.003906 C 5.132812 8.09375 5.289062 8.195312 5.445312 8.285156 C 5.566406 8.355469 5.660156 8.324219 5.710938 8.210938 C 5.773438 8.078125 5.738281 7.949219 5.628906 7.875 C 5.519531 7.800781 5.414062 7.726562 5.304688 7.660156 C 5.226562 7.613281 5.183594 7.546875 5.15625 7.445312 C 5.101562 7.21875 5.046875 6.992188 4.984375 6.773438 C 4.96875 6.714844 4.945312 6.648438 4.90625 6.617188 C 4.675781 6.410156 4.429688 6.273438 4.128906 6.390625 C 3.882812 6.488281 3.640625 6.570312 3.402344 6.683594 C 3.324219 6.71875 3.242188 6.808594 3.207031 6.898438 C 3.117188 7.148438 3.050781 7.40625 2.980469 7.664062 C 2.945312 7.789062 3.003906 7.910156 3.105469 7.949219 C 3.210938 7.992188 3.289062 7.933594 3.332031 7.800781 C 3.386719 7.621094 3.441406 7.445312 3.492188 7.269531 C 3.554688 7.078125 3.75 6.933594 3.941406 6.949219 C 3.929688 6.992188 3.921875 7.039062 3.910156 7.078125 C 3.671875 7.789062 3.433594 8.503906 3.1875 9.210938 C 3.152344 9.308594 3.085938 9.40625 3.007812 9.476562 C 2.832031 9.648438 2.640625 9.804688 2.460938 9.972656 C 2.402344 10.027344 2.351562 10.105469 2.324219 10.1875 C 2.261719 10.382812 2.382812 10.554688 2.558594 10.519531 C 2.621094 10.503906 2.6875 10.464844 2.742188 10.421875 C 2.960938 10.242188 3.179688 10.058594 3.390625 9.867188 C 3.449219 9.820312 3.503906 9.742188 3.539062 9.664062 C 3.648438 9.414062 3.75 9.160156 3.855469 8.90625 C 3.875 8.863281 3.914062 8.835938 3.945312 8.796875 C 3.976562 8.835938 4.015625 8.871094 4.035156 8.917969 C 4.238281 9.492188 4.433594 10.070312 4.632812 10.648438 C 4.703125 10.835938 4.847656 10.910156 4.992188 10.839844 C 5.128906 10.773438 5.167969 10.621094 5.101562 10.425781 C 4.890625 9.804688 4.679688 9.195312 4.46875 8.574219 C 4.429688 8.457031 4.421875 8.335938 4.457031 8.214844 C 4.523438 7.984375 4.585938 7.753906 4.648438 7.523438 C 4.648438 7.476562 4.675781 7.4375 4.695312 7.394531 Z M 4.859375 5.398438 C 4.644531 5.394531 4.457031 5.609375 4.453125 5.871094 C 4.449219 6.125 4.632812 6.34375 4.847656 6.351562 C 5.058594 6.355469 5.25 6.136719 5.253906 5.882812 C 5.253906 5.625 5.070312 5.402344 4.859375 5.398438 Z M 4.859375 5.398438 "/>
<path style=" stroke:none;fill-rule:nonzero;fill:rgb(0%,0%,0%);fill-opacity:1;" d="M 4.695312 7.394531 C 4.675781 7.433594 4.648438 7.476562 4.636719 7.519531 C 4.570312 7.75 4.511719 7.980469 4.445312 8.210938 C 4.414062 8.335938 4.414062 8.453125 4.457031 8.570312 C 4.667969 9.183594 4.878906 9.804688 5.089844 10.421875 C 5.15625 10.621094 5.117188 10.769531 4.976562 10.835938 C 4.835938 10.90625 4.691406 10.832031 4.625 10.644531 C 4.425781 10.070312 4.226562 9.488281 4.023438 8.914062 C 4.007812 8.867188 3.964844 8.835938 3.933594 8.792969 C 3.90625 8.832031 3.867188 8.859375 3.847656 8.902344 C 3.742188 9.15625 3.640625 9.40625 3.527344 9.660156 C 3.492188 9.738281 3.441406 9.816406 3.382812 9.867188 C 3.167969 10.054688 2.949219 10.242188 2.730469 10.417969 C 2.679688 10.460938 2.617188 10.503906 2.546875 10.511719 C 2.378906 10.550781 2.25 10.382812 2.316406 10.183594 C 2.339844 10.101562 2.398438 10.023438 2.449219 9.96875 C 2.628906 9.800781 2.820312 9.644531 3 9.476562 C 3.070312 9.402344 3.140625 9.308594 3.179688 9.207031 C 3.421875 8.5 3.660156 7.785156 3.898438 7.074219 C 3.914062 7.035156 3.914062 6.992188 3.929688 6.945312 C 3.742188 6.929688 3.542969 7.074219 3.484375 7.261719 C 3.429688 7.441406 3.378906 7.617188 3.320312 7.796875 C 3.28125 7.929688 3.195312 7.980469 3.09375 7.945312 C 2.992188 7.902344 2.9375 7.785156 2.96875 7.660156 C 3.039062 7.40625 3.105469 7.148438 3.195312 6.898438 C 3.226562 6.804688 3.3125 6.714844 3.390625 6.679688 C 3.628906 6.570312 3.875 6.484375 4.117188 6.386719 C 4.414062 6.273438 4.664062 6.402344 4.894531 6.613281 C 4.929688 6.648438 4.957031 6.710938 4.972656 6.769531 C 5.035156 6.992188 5.09375 7.214844 5.148438 7.441406 C 5.167969 7.539062 5.214844 7.609375 5.292969 7.65625 C 5.398438 7.722656 5.507812 7.796875 5.617188 7.871094 C 5.726562 7.945312 5.757812 8.078125 5.699219 8.203125 C 5.648438 8.320312 5.554688 8.351562 5.433594 8.28125 C 5.277344 8.191406 5.125 8.089844 4.964844 8 C 4.882812 7.957031 4.835938 7.882812 4.816406 7.785156 C 4.792969 7.691406 4.773438 7.59375 4.75 7.496094 C 4.742188 7.460938 4.726562 7.429688 4.710938 7.394531 C 4.710938 7.398438 4.703125 7.398438 4.695312 7.394531 Z M 4.695312 7.394531 "/>
<path style=" stroke:none;fill-rule:nonzero;fill:rgb(0%,0%,0%);fill-opacity:1;" d="M 4.859375 5.398438 C 5.070312 5.402344 5.257812 5.625 5.253906 5.875 C 5.25 6.132812 5.066406 6.351562 4.847656 6.347656 C 4.632812 6.335938 4.449219 6.121094 4.453125 5.867188 C 4.457031 5.609375 4.644531 5.394531 4.859375 5.398438 Z M 4.859375 5.398438 "/>
</g>
</svg>
